<svg width="800" height="100" viewBox="0 0 800 100" version="1.1" xmlns="http://www.w3.org/2000/svg" xmlns:xlink="http://www.w3.org/1999/xlink">
<title>Tile</title>
<desc>Created using Figma</desc>
<g id="Canvas" transform="translate(-64 1126)" opacity=".07">
<clipPath id="clip-0" clip-rule="evenodd">
<path d="M 64 -1126L 864 -1126L 864 -1026L 64 -1026L 64 -1126Z" fill="#FFFFFF"/>
</clipPath>
<g id="Tile" clip-path="url(#clip-0)">
<g id="Group">
<g id="Vector">
<use xlink:href="#path0_fill" transform="translate(78 -1116)" fill="#FFFFFF"/>
</g>
</g>
<g id="Group">
<g id="Vector">
<use xlink:href="#path1_fill" transform="translate(374 -1116)" fill="#FFFFFF"/>
</g>
</g>
<g id="Group">
<g id="Vector">
<use xlink:href="#path2_fill" transform="translate(176 -1116)" fill="#FFFFFF"/>
</g>
</g>
<g id="Group">
<g id="Vector">
<use xlink:href="#path3_fill" transform="translate(280 -1116)" fill="#FFFFFF"/>
</g>
</g>
<g id="Group">
<g id="Vector">
<use xlink:href="#path4_fill" transform="translate(480 -1116)" fill="#FFFFFF"/>
</g>
</g>
<g id="Group">
<g id="Vector">
<use xlink:href="#path5_fill" transform="translate(574 -1112)" fill="#FFFFFF"/>
</g>
</g>
<g id="Group">
<g id="Vector">
<use xlink:href="#path6_fill" transform="translate(677 -1116)" fill="#FFFFFF"/>
</g>
</g>
<g id="Group">
<g id="Vector">
<use xlink:href="#path7_fill" transform="translate(774 -1110)" fill="#FFFFFF"/>
</g>
</g>
<g id="Group">
<g id="Vector">
<use xlink:href="#path8_fill" transform="translate(627 -1066)" fill="#FFFFFF"/>
</g>
</g>
<g id="Group">
<g id="Vector">
<use xlink:href="#path9_fill" transform="translate(424 -1066)" fill="#FFFFFF"/>
</g>
</g>
<g id="Vector">
<use xlink:href="#path10_fill" transform="translate(124 -1066)" fill="#FFFFFF"/>
</g>
<g id="Group">
<g id="Vector">
<use xlink:href="#path11_fill" transform="translate(222 -1066)" fill="#FFFFFF"/>
</g>
</g>
<g id="Group">
<g id="Vector">
<use xlink:href="#path12_fill" transform="translate(328 -1066)" fill="#FFFFFF"/>
</g>
</g>
<g id="Group">
<g id="Vector">
<use xlink:href="#path13_fill" transform="translate(527 -1066)" fill="#FFFFFF"/>
</g>
</g>
<g id="Group">
<g id="Vector">
<use xlink:href="#path14_fill" transform="translate(725 -1066)" fill="#FFFFFF"/>
</g>
</g>
<g id="Group">
<g id="Vector">
<use xlink:href="#path15_fill" transform="translate(826 -1066)" fill="#FFFFFF"/>
</g>
</g>
</g>
</g>
<defs>
<path id="path0_fill" d="M 11.1 0C 12.1214 0 13.1042 0.134277 14.0484 0.402832C 14.9927 0.671387 15.8768 1.0498 16.7006 1.53809C 17.5244 2.02637 18.2736 2.61231 18.948 3.2959C 19.6225 3.97949 20.2007 4.73877 20.6824 5.57373C 21.1642 6.40869 21.5376 7.30469 21.8025 8.26172C 22.0675 9.21875 22.2 10.2148 22.2 11.25L 22.2 17.8125C 22.2 18.2031 22.1277 18.5693 21.9832 18.9111C 21.8387 19.2529 21.6411 19.5508 21.3906 19.8047C 21.1401 20.0586 20.8462 20.2588 20.509 20.4053C 20.1717 20.5518 19.8104 20.625 19.425 20.625L 16.65 20.625L 16.65 11.25L 19.425 11.25C 19.5888 11.25 19.7478 11.2671 19.902 11.3013C 20.0561 11.3354 20.2055 11.377 20.35 11.4258C 20.35 10.1074 20.1139 8.86963 19.6418 7.7124C 19.1697 6.55518 18.5217 5.54443 17.6979 4.68018C 16.874 3.81592 15.896 3.13232 14.7639 2.62939C 13.6317 2.12646 12.4104 1.875 11.1 1.875C 10.2521 1.875 9.43307 1.98731 8.64297 2.21191C 7.85286 2.43652 7.11576 2.75147 6.43164 3.15674C 5.74753 3.56201 5.12363 4.05029 4.55996 4.62158C 3.99629 5.19287 3.51452 5.82519 3.11465 6.51855C 2.71478 7.21191 2.40404 7.95898 2.18242 8.75977C 1.96081 9.56055 1.85 10.3906 1.85 11.25L 1.85 11.4258C 1.99453 11.377 2.14388 11.3354 2.29805 11.3013C 2.45221 11.2671 2.6112 11.25 2.775 11.25L 5.55 11.25L 5.55 20.625L 3.7 20.625L 3.7 22.5C 3.7 23.0176 3.79635 23.5034 3.98906 23.9575C 4.18177 24.4116 4.44674 24.8096 4.78398 25.1514C 5.12122 25.4932 5.51387 25.7617 5.96191 25.957C 6.40996 26.1523 6.88932 26.25 7.4 26.25C 7.4 25.9863 7.44818 25.7422 7.54453 25.5176C 7.64089 25.293 7.77337 25.0952 7.94199 24.9243C 8.11061 24.7534 8.30573 24.6191 8.52734 24.5215C 8.74896 24.4238 8.98984 24.375 9.25 24.375L 12.95 24.375C 13.2102 24.375 13.451 24.4238 13.6727 24.5215C 13.8943 24.6191 14.0894 24.7534 14.258 24.9243C 14.4266 25.0952 14.5591 25.293 14.6555 25.5176C 14.7518 25.7422 14.8 25.9863 14.8 26.25L 14.8 28.125C 14.8 28.3887 14.7518 28.6328 14.6555 28.8574C 14.5591 29.082 14.4266 29.2798 14.258 29.4507C 14.0894 29.6216 13.8943 29.7559 13.6727 29.8535C 13.451 29.9512 13.2102 30 12.95 30L 9.25 30C 8.98984 30 8.74896 29.9512 8.52734 29.8535C 8.30573 29.7559 8.11061 29.6216 7.94199 29.4507C 7.77337 29.2798 7.64089 29.082 7.54453 28.8574C 7.44818 28.6328 7.4 28.3887 7.4 28.125C 6.62917 28.125 5.90892 27.9785 5.23926 27.6855C 4.5696 27.3926 3.98184 26.9897 3.47598 26.4771C 2.97012 25.9644 2.57266 25.3687 2.28359 24.6899C 1.99453 24.0112 1.85 23.2812 1.85 22.5L 1.85 20.4492C 1.57057 20.3516 1.31764 20.2148 1.09121 20.0391C 0.864779 19.8633 0.67207 19.6606 0.513086 19.4312C 0.354102 19.2017 0.228841 18.9478 0.137304 18.6694C 0.0457684 18.3911 0 18.1055 0 17.8125L 0 11.25C 0 10.2148 0.132487 9.21875 0.397461 8.26172C 0.662435 7.30469 1.03581 6.40869 1.51758 5.57373C 1.99935 4.73877 2.57747 3.97949 3.25195 3.2959C 3.92643 2.61231 4.67559 2.02637 5.49941 1.53809C 6.32324 1.0498 7.20729 0.671387 8.15156 0.402832C 9.09583 0.134277 10.0786 0 11.1 0ZM 9.25 28.125L 12.95 28.125L 12.95 26.25L 9.25 26.25L 9.25 28.125ZM 2.775 13.125C 2.52448 13.125 2.30768 13.2178 2.12461 13.4033C 1.94154 13.5889 1.85 13.8086 1.85 14.0625L 1.85 17.8125C 1.85 18.0664 1.94154 18.2861 2.12461 18.4717C 2.30768 18.6572 2.52448 18.75 2.775 18.75L 3.7 18.75L 3.7 13.125L 2.775 13.125ZM 20.35 14.0625C 20.35 13.8086 20.2585 13.5889 20.0754 13.4033C 19.8923 13.2178 19.6755 13.125 19.425 13.125L 18.5 13.125L 18.5 18.75L 19.425 18.75C 19.6755 18.75 19.8923 18.6572 20.0754 18.4717C 20.2585 18.2861 20.35 18.0664 20.35 17.8125L 20.35 14.0625Z"/>
<path id="path1_fill" d="M 30 15L 28.125 15C 28.125 13.7988 27.9688 12.6392 27.6562 11.521C 27.3438 10.4028 26.9019 9.35791 26.3306 8.38623C 25.7593 7.41455 25.0732 6.52832 24.2725 5.72754C 23.4717 4.92676 22.5854 4.24072 21.6138 3.66943C 20.6421 3.09814 19.5972 2.65625 18.479 2.34375C 17.3608 2.03125 16.2012 1.875 15 1.875C 13.7891 1.875 12.627 2.03125 11.5137 2.34375C 10.4004 2.65625 9.35791 3.09814 8.38623 3.66943C 7.41455 4.24072 6.52832 4.92676 5.72754 5.72754C 4.92676 6.52832 4.24072 7.41455 3.66943 8.38623C 3.09815 9.35791 2.65625 10.4028 2.34375 11.521C 2.03125 12.6392 1.875 13.7988 1.875 15C 1.875 16.2109 2.03125 17.373 2.34375 18.4863C 2.65625 19.5996 3.09815 20.6421 3.66943 21.6138C 4.24072 22.5854 4.92676 23.4717 5.72754 24.2725C 6.52832 25.0732 7.41455 25.7593 8.38623 26.3306C 9.35791 26.9019 10.4028 27.3438 11.521 27.6562C 12.6392 27.9688 13.7988 28.125 15 28.125L 15 30C 13.6133 30 12.2827 29.8218 11.0083 29.4653C 9.73389 29.1089 8.54004 28.606 7.42676 27.9565C 6.31348 27.3071 5.30029 26.5259 4.38721 25.6128C 3.47412 24.6997 2.69287 23.6865 2.04346 22.5732C 1.39404 21.46 0.891113 20.2637 0.534668 18.9844C 0.178223 17.7051 0 16.377 0 15C 0 13.623 0.178223 12.2949 0.534668 11.0156C 0.891113 9.73633 1.39404 8.54004 2.04346 7.42676C 2.69287 6.31348 3.47412 5.30029 4.38721 4.38721C 5.30029 3.47412 6.31348 2.69287 7.42676 2.04346C 8.54004 1.39404 9.73633 0.891113 11.0156 0.534668C 12.2949 0.178223 13.623 0 15 0C 16.377 0 17.7051 0.178223 18.9844 0.534668C 20.2637 0.891113 21.46 1.39404 22.5732 2.04346C 23.6865 2.69287 24.6997 3.47412 25.6128 4.38721C 26.5259 5.30029 27.3071 6.31348 27.9565 7.42676C 28.606 8.54004 29.1089 9.73633 29.4653 11.0156C 29.8218 12.2949 30 13.623 30 15ZM 15 5.625C 16.2988 5.625 17.5171 5.86914 18.6548 6.35742C 19.7925 6.8457 20.7861 7.51465 21.6357 8.36426C 22.4854 9.21387 23.1543 10.2075 23.6426 11.3452C 24.1309 12.4829 24.375 13.7012 24.375 15L 22.5 15C 22.5 13.9648 22.3022 12.9932 21.9067 12.085C 21.5112 11.1768 20.9741 10.3833 20.2954 9.70459C 19.6167 9.02588 18.8232 8.48877 17.915 8.09326C 17.0068 7.69775 16.0352 7.5 15 7.5C 13.9648 7.5 12.9932 7.69775 12.085 8.09326C 11.1768 8.48877 10.3833 9.02588 9.70459 9.70459C 9.02588 10.3833 8.48877 11.1768 8.09326 12.085C 7.69775 12.9932 7.5 13.9648 7.5 15C 7.5 16.0059 7.68799 16.9629 8.06396 17.8711C 8.43994 18.7793 8.98438 19.5898 9.69727 20.3027L 8.36426 21.6357C 7.47559 20.7471 6.79688 19.7314 6.32812 18.5889C 5.85938 17.4463 5.625 16.25 5.625 15C 5.625 13.7012 5.86914 12.4829 6.35742 11.3452C 6.8457 10.2075 7.51465 9.21387 8.36426 8.36426C 9.21387 7.51465 10.2075 6.8457 11.3452 6.35742C 12.4829 5.86914 13.7012 5.625 15 5.625ZM 15 11.25C 15.5176 11.25 16.0034 11.3477 16.4575 11.543C 16.9116 11.7383 17.3096 12.0068 17.6514 12.3486C 17.9932 12.6904 18.2617 13.0884 18.457 13.5425C 18.6523 13.9966 18.75 14.4824 18.75 15C 18.75 15.5176 18.6523 16.0034 18.457 16.4575C 18.2617 16.9116 17.9932 17.3096 17.6514 17.6514C 17.3096 17.9932 16.9116 18.2617 16.4575 18.457C 16.0034 18.6523 15.5176 18.75 15 18.75C 14.4824 18.75 13.9966 18.6523 13.5425 18.457C 13.0884 18.2617 12.6904 17.9932 12.3486 17.6514C 12.0068 17.3096 11.7383 16.9116 11.543 16.4575C 11.3477 16.0034 11.25 15.5176 11.25 15C 11.25 14.4824 11.3477 13.9966 11.543 13.5425C 11.7383 13.0884 12.0068 12.6904 12.3486 12.3486C 12.6904 12.0068 13.0884 11.7383 13.5425 11.543C 13.9966 11.3477 14.4824 11.25 15 11.25ZM 15 16.875C 15.2637 16.875 15.5078 16.8262 15.7324 16.7285C 15.957 16.6309 16.1548 16.4966 16.3257 16.3257C 16.4966 16.1548 16.6309 15.957 16.7285 15.7324C 16.8262 15.5078 16.875 15.2637 16.875 15C 16.875 14.7363 16.8262 14.4922 16.7285 14.2676C 16.6309 14.043 16.4966 13.8452 16.3257 13.6743C 16.1548 13.5034 15.957 13.3691 15.7324 13.2715C 15.5078 13.1738 15.2637 13.125 15 13.125C 14.7363 13.125 14.4922 13.1738 14.2676 13.2715C 14.043 13.3691 13.8452 13.5034 13.6743 13.6743C 13.5034 13.8452 13.3691 14.043 13.2715 14.2676C 13.1738 14.4922 13.125 14.7363 13.125 15C 13.125 15.2637 13.1738 15.5078 13.2715 15.7324C 13.3691 15.957 13.5034 16.1548 13.6743 16.3257C 13.8452 16.4966 14.043 16.6309 14.2676 16.7285C 14.4922 16.8262 14.7363 16.875 15 16.875Z"/>
<path id="path2_fill" d="M 7.74194 10.6452L 9.67742 10.6452L 9.67742 12.5806L 7.74194 12.5806L 7.74194 10.6452ZM 15.4839 10.6452L 17.4194 10.6452L 17.4194 12.5806L 15.4839 12.5806L 15.4839 10.6452ZM 22.5756 20.3226C 22.9284 20.3226 23.2611 20.3906 23.5736 20.5267C 23.8861 20.6628 24.1608 20.8493 24.3977 21.0862C 24.6346 21.3231 24.8211 21.5978 24.9572 21.9103C 25.0932 22.2228 25.1613 22.5554 25.1613 22.9083L 25.1613 30L 23.2258 30L 23.2258 22.9083C 23.2258 22.7268 23.1628 22.5731 23.0368 22.4471C 22.9108 22.3211 22.7571 22.2581 22.5756 22.2581L 2.58569 22.2581C 2.40423 22.2581 2.2505 22.3211 2.1245 22.4471C 1.99849 22.5731 1.93548 22.7268 1.93548 22.9083L 1.93548 30L 0 30L 0 22.9083C 0 22.5554 0.0680443 22.2228 0.204133 21.9103C 0.340222 21.5978 0.524193 21.3231 0.756049 21.0862C 0.987903 20.8493 1.2626 20.6628 1.58014 20.5267C 1.89768 20.3906 2.23286 20.3226 2.58569 20.3226L 7.74194 20.3226L 7.74194 18.3871L 6.45665 18.3871C 6.10383 18.3871 5.76865 18.3191 5.45111 18.183C 5.13357 18.0469 4.85887 17.8629 4.62702 17.631C 4.39516 17.3992 4.21119 17.1245 4.0751 16.807C 3.93901 16.4894 3.87097 16.1542 3.87097 15.8014L 3.87097 14.5161L 1.93548 14.5161L 1.93548 10.6452L 3.87097 10.6452L 3.87097 9.35988C 3.87097 9.00706 3.93901 8.67439 4.0751 8.3619C 4.21119 8.0494 4.39516 7.7747 4.62702 7.5378C 4.85887 7.30091 5.13357 7.11442 5.45111 6.97833C 5.76865 6.84224 6.10383 6.77419 6.45665 6.77419L 11.6129 6.77419L 11.6129 3.61391C 11.3206 3.44254 11.0862 3.20565 10.9098 2.90323C 10.7334 2.60081 10.6452 2.27823 10.6452 1.93548C 10.6452 1.66331 10.6956 1.41129 10.7964 1.17944C 10.8972 0.947581 11.0358 0.743448 11.2122 0.567036C 11.3886 0.390625 11.5927 0.252017 11.8246 0.15121C 12.0565 0.0504035 12.3085 0 12.5806 0C 12.8528 0 13.1048 0.0504035 13.3367 0.15121C 13.5685 0.252017 13.7727 0.390625 13.9491 0.567036C 14.1255 0.743448 14.2641 0.947581 14.3649 1.17944C 14.4657 1.41129 14.5161 1.66331 14.5161 1.93548C 14.5161 2.27823 14.4279 2.60081 14.2515 2.90323C 14.0751 3.20565 13.8407 3.44254 13.5484 3.61391L 13.5484 6.77419L 18.7046 6.77419C 19.0575 6.77419 19.3901 6.84224 19.7026 6.97833C 20.0151 7.11442 20.2898 7.30091 20.5267 7.5378C 20.7636 7.7747 20.9501 8.0494 21.0862 8.3619C 21.2223 8.67439 21.2903 9.00706 21.2903 9.35988L 21.2903 10.6452L 23.2258 10.6452L 23.2258 14.5161L 21.2903 14.5161L 21.2903 15.8014C 21.2903 16.1542 21.2223 16.4894 21.0862 16.807C 20.9501 17.1245 20.7636 17.3992 20.5267 17.631C 20.2898 17.8629 20.0151 18.0469 19.7026 18.183C 19.3901 18.3191 19.0575 18.3871 18.7046 18.3871L 17.4194 18.3871L 17.4194 20.3226L 22.5756 20.3226ZM 5.80645 15.8014C 5.80645 15.9829 5.86946 16.1366 5.99546 16.2626C 6.12147 16.3886 6.2752 16.4516 6.45665 16.4516L 18.7046 16.4516C 18.8861 16.4516 19.0398 16.3886 19.1658 16.2626C 19.2918 16.1366 19.3548 15.9829 19.3548 15.8014L 19.3548 9.35988C 19.3548 9.17843 19.2918 9.0247 19.1658 8.89869C 19.0398 8.77268 18.8861 8.70968 18.7046 8.70968L 6.45665 8.70968C 6.2752 8.70968 6.12147 8.77268 5.99546 8.89869C 5.86946 9.0247 5.80645 9.17843 5.80645 9.35988L 5.80645 15.8014ZM 9.67742 20.3226L 15.4839 20.3226L 15.4839 18.3871L 9.67742 18.3871L 9.67742 20.3226Z"/>
<path id="path3_fill" d="M 16.875 0C 17.1387 0 17.3828 0.0488284 17.6074 0.146484C 17.832 0.244141 18.0298 0.378418 18.2007 0.549316C 18.3716 0.720215 18.5059 0.917969 18.6035 1.14258C 18.7012 1.36719 18.75 1.61133 18.75 1.875L 18.75 28.125C 18.75 28.3887 18.7012 28.6328 18.6035 28.8574C 18.5059 29.082 18.3716 29.2798 18.2007 29.4507C 18.0298 29.6216 17.832 29.7559 17.6074 29.8535C 17.3828 29.9512 17.1387 30 16.875 30L 1.875 30C 1.61133 30 1.36719 29.9512 1.14258 29.8535C 0.917969 29.7559 0.720215 29.6216 0.549316 29.4507C 0.378418 29.2798 0.244141 29.082 0.146484 28.8574C 0.0488279 28.6328 0 28.3887 0 28.125L 0 1.875C 0 1.61133 0.0488279 1.36719 0.146484 1.14258C 0.244141 0.917969 0.378418 0.720215 0.549316 0.549316C 0.720215 0.378418 0.917969 0.244141 1.14258 0.146484C 1.36719 0.0488284 1.61133 0 1.875 0L 16.875 0ZM 16.875 1.875L 1.875 1.875L 1.875 28.125L 16.875 28.125L 16.875 1.875ZM 7.5 24.375L 11.25 24.375L 11.25 26.25L 7.5 26.25L 7.5 24.375Z"/>
<path id="path4_fill" d="M 18.75 16.875L 16.875 16.875L 16.875 27.1875C 16.875 27.5781 16.8018 27.9443 16.6553 28.2861C 16.5088 28.6279 16.3086 28.9258 16.0547 29.1797C 15.8008 29.4336 15.5029 29.6338 15.1611 29.7803C 14.8193 29.9268 14.4531 30 14.0625 30C 13.6719 30 13.3057 29.9268 12.9639 29.7803C 12.6221 29.6338 12.3242 29.4336 12.0703 29.1797C 11.8164 28.9258 11.6162 28.6279 11.4697 28.2861C 11.3232 27.9443 11.25 27.5781 11.25 27.1875L 11.25 16.875L 9.375 16.875L 9.375 15L 13.125 15L 13.125 6.95801L 11.25 5.08301L 11.25 0L 16.875 0L 16.875 5.08301L 15 6.95801L 15 15L 18.75 15L 18.75 16.875ZM 13.125 4.29199L 14.0625 5.24414L 15 4.29199L 15 1.875L 13.125 1.875L 13.125 4.29199ZM 15 16.875L 13.125 16.875L 13.125 27.1875C 13.125 27.4414 13.2178 27.6611 13.4033 27.8467C 13.5889 28.0322 13.8086 28.125 14.0625 28.125C 14.3164 28.125 14.5361 28.0322 14.7217 27.8467C 14.9072 27.6611 15 27.4414 15 27.1875L 15 16.875ZM 4.6875 0C 5.33203 0 5.9375 0.124512 6.50391 0.373535C 7.07031 0.622559 7.56592 0.959473 7.99072 1.38428C 8.41553 1.80908 8.75244 2.30469 9.00146 2.87109C 9.25049 3.4375 9.375 4.04297 9.375 4.6875C 9.375 5.41992 9.20898 6.11572 8.87695 6.7749C 8.54492 7.43408 8.08594 7.9834 7.5 8.42285L 7.5 27.1875C 7.5 27.5781 7.42676 27.9443 7.28027 28.2861C 7.13379 28.6279 6.93359 28.9258 6.67969 29.1797C 6.42578 29.4336 6.12793 29.6338 5.78613 29.7803C 5.44434 29.9268 5.07812 30 4.6875 30C 4.29688 30 3.93066 29.9268 3.58887 29.7803C 3.24707 29.6338 2.94922 29.4336 2.69531 29.1797C 2.44141 28.9258 2.24121 28.6279 2.09473 28.2861C 1.94824 27.9443 1.875 27.5781 1.875 27.1875L 1.875 8.42285C 1.28906 7.9834 0.830078 7.43408 0.498047 6.7749C 0.166016 6.11572 0 5.41992 0 4.6875C 0 4.04297 0.12207 3.4375 0.366211 2.87109C 0.610352 2.30469 0.944824 1.80908 1.36963 1.38428C 1.79443 0.959473 2.29248 0.622559 2.86377 0.373535C 3.43506 0.124512 4.04297 0 4.6875 0ZM 5.625 7.38281C 5.89844 7.22656 6.1499 7.06055 6.37939 6.88477C 6.60889 6.70898 6.80664 6.51611 6.97266 6.30615C 7.13867 6.09619 7.26807 5.85938 7.36084 5.5957C 7.45361 5.33203 7.5 5.0293 7.5 4.6875C 7.5 4.39453 7.45361 4.11133 7.36084 3.83789C 7.26807 3.56445 7.14111 3.31055 6.97998 3.07617C 6.81885 2.8418 6.62109 2.63672 6.38672 2.46094C 6.15234 2.28516 5.89844 2.14844 5.625 2.05078L 5.625 4.6875L 4.6875 5.625L 3.75 4.6875L 3.75 2.05078C 3.4668 2.14844 3.21045 2.28516 2.98096 2.46094C 2.75147 2.63672 2.55615 2.8418 2.39502 3.07617C 2.23389 3.31055 2.10693 3.56445 2.01416 3.83789C 1.92139 4.11133 1.875 4.39453 1.875 4.6875C 1.875 5.0293 1.92139 5.33203 2.01416 5.5957C 2.10693 5.85938 2.23633 6.09619 2.40234 6.30615C 2.56836 6.51611 2.76611 6.70898 2.99561 6.88477C 3.2251 7.06055 3.47656 7.22656 3.75 7.38281L 3.75 27.1875C 3.75 27.4414 3.84277 27.6611 4.02832 27.8467C 4.21387 28.0322 4.43359 28.125 4.6875 28.125C 4.94141 28.125 5.16113 28.0322 5.34668 27.8467C 5.53223 27.6611 5.625 27.4414 5.625 27.1875L 5.625 7.38281Z"/>
<path id="path5_fill" d="M 2.14286 0L 30 0L 30 17.1429L 17.1429 17.1429L 17.1429 19.2857L 21.4286 19.2857L 21.4286 21.4286L 10.7143 21.4286L 10.7143 19.2857L 15 19.2857L 15 17.1429L 8.57143 17.1429L 8.57143 21.4286L 0 21.4286L 0 8.57143L 2.14286 8.57143L 2.14286 0ZM 6.42857 19.2857L 6.42857 10.7143L 2.14286 10.7143L 2.14286 19.2857L 6.42857 19.2857ZM 8.57143 15L 27.8571 15L 27.8571 2.14286L 4.28571 2.14286L 4.28571 8.57143L 8.57143 8.57143L 8.57143 15Z"/>
<path id="path6_fill" d="M 24.1667 8.04199L 24.1667 30L 0 30L 0 0L 16.1934 0L 24.1667 8.04199ZM 16.7308 7.5L 20.9861 7.5L 16.7308 3.20801L 16.7308 7.5ZM 22.3077 28.125L 22.3077 9.375L 14.8718 9.375L 14.8718 1.875L 1.85897 1.875L 1.85897 28.125L 22.3077 28.125ZM 9.01893 13.7842L 5.95453 16.875L 9.01893 19.9658L 7.71184 21.2842L 3.34035 16.875L 7.71184 12.4658L 9.01893 13.7842ZM 16.4548 12.4658L 20.8263 16.875L 16.4548 21.2842L 15.1477 19.9658L 18.2121 16.875L 15.1477 13.7842L 16.4548 12.4658Z"/>
<path id="path7_fill" d="M 24.3311 7.5C 25.1123 7.5 25.8472 7.64648 26.5356 7.93945C 27.2241 8.23242 27.8247 8.63037 28.3374 9.1333C 28.8501 9.63623 29.2554 10.2295 29.5532 10.9131C 29.8511 11.5967 30 12.334 30 13.125C 30 13.9062 29.8535 14.6362 29.5605 15.3149C 29.2676 15.9937 28.8647 16.5894 28.3521 17.1021C 27.8394 17.6147 27.2412 18.0176 26.5576 18.3105C 25.874 18.6035 25.1465 18.75 24.375 18.75L 7.5 18.75C 6.46484 18.75 5.49072 18.5547 4.57764 18.1641C 3.66455 17.7734 2.86865 17.2388 2.18994 16.5601C 1.51123 15.8813 0.976562 15.0854 0.585938 14.1724C 0.195312 13.2593 0 12.2852 0 11.25C 0 10.2148 0.195312 9.24072 0.585938 8.32764C 0.976562 7.41455 1.51123 6.61865 2.18994 5.93994C 2.86865 5.26123 3.66455 4.72656 4.57764 4.33594C 5.49072 3.94531 6.46484 3.75 7.5 3.75C 7.94922 3.75 8.40332 3.79394 8.8623 3.88184C 9.25293 3.27637 9.70459 2.73193 10.2173 2.24854C 10.73 1.76514 11.2891 1.35742 11.8945 1.02539C 12.5 0.693359 13.1445 0.439453 13.8281 0.263672C 14.5117 0.0878909 15.2148 0 15.9375 0C 17.0215 0 18.0444 0.19043 19.0063 0.571289C 19.9683 0.952148 20.8203 1.47705 21.5625 2.146C 22.3047 2.81494 22.9175 3.6084 23.4009 4.52637C 23.8843 5.44434 24.1943 6.43555 24.3311 7.5ZM 24.375 16.875C 24.8926 16.875 25.3784 16.7773 25.8325 16.582C 26.2866 16.3867 26.6846 16.1182 27.0264 15.7764C 27.3682 15.4346 27.6367 15.0366 27.832 14.5825C 28.0273 14.1284 28.125 13.6426 28.125 13.125C 28.125 12.6074 28.0273 12.1216 27.832 11.6675C 27.6367 11.2134 27.3682 10.8154 27.0264 10.4736C 26.6846 10.1318 26.2866 9.86328 25.8325 9.66797C 25.3784 9.47266 24.8926 9.375 24.375 9.375L 22.5 9.375L 22.5 8.4375C 22.5 7.5293 22.3291 6.67725 21.9873 5.88135C 21.6455 5.08545 21.1768 4.38965 20.5811 3.79395C 19.9854 3.19824 19.2896 2.72949 18.4937 2.3877C 17.6978 2.0459 16.8457 1.875 15.9375 1.875C 15.2539 1.875 14.5947 1.97754 13.96 2.18262C 13.3252 2.3877 12.7417 2.67578 12.2095 3.04688C 11.6772 3.41797 11.2061 3.86475 10.7959 4.38721C 10.3857 4.90967 10.0586 5.49316 9.81445 6.1377C 9.08203 5.7959 8.31055 5.625 7.5 5.625C 6.71875 5.625 5.98877 5.77148 5.31006 6.06445C 4.63135 6.35742 4.03565 6.76025 3.52295 7.27295C 3.01025 7.78565 2.60742 8.38379 2.31445 9.06738C 2.02148 9.75098 1.875 10.4785 1.875 11.25C 1.875 12.0312 2.02148 12.7612 2.31445 13.4399C 2.60742 14.1187 3.01025 14.7144 3.52295 15.2271C 4.03565 15.7397 4.63135 16.1426 5.31006 16.4355C 5.98877 16.7285 6.71875 16.875 7.5 16.875L 24.375 16.875Z"/>
<path id="path8_fill" d="M 11.8421 0C 12.6495 0 13.5438 0.0446417 14.5251 0.133929C 15.5063 0.223213 16.4876 0.376674 17.4688 0.594308C 18.45 0.811941 19.3836 1.11049 20.2695 1.48996C 21.1554 1.86942 21.9012 2.34375 22.5067 2.91295C 22.8544 3.23661 23.1375 3.60491 23.3562 4.01786C 23.5749 4.4308 23.6842 4.87723 23.6842 5.35714L 23.6842 24.6429C 23.6842 25.1451 23.5749 25.5943 23.3562 25.9905C 23.1375 26.3867 22.8544 26.7522 22.5067 27.0871C 21.9236 27.6562 21.1863 28.1278 20.2947 28.5017C 19.4032 28.8756 18.4612 29.1741 17.4688 29.3973C 16.4763 29.6205 15.4867 29.7768 14.4999 29.8661C 13.513 29.9554 12.6271 30 11.8421 30C 11.0347 30 10.1404 29.9554 9.15913 29.8661C 8.17789 29.7768 7.19666 29.6233 6.21542 29.4057C 5.23419 29.1881 4.30061 28.8895 3.4147 28.51C 2.52878 28.1306 1.78304 27.6562 1.17748 27.0871C 0.829844 26.7634 0.546688 26.3951 0.328013 25.9821C 0.109338 25.5692 0 25.1228 0 24.6429L 0 5.35714C 0 4.85491 0.109338 4.40569 0.328013 4.00949C 0.546688 3.61328 0.829844 3.24777 1.17748 2.91295C 1.76062 2.34375 2.49794 1.87221 3.38947 1.49833C 4.28099 1.12444 5.22297 0.825892 6.21542 0.602679C 7.20787 0.379464 8.19752 0.223213 9.18436 0.133929C 10.1712 0.0446417 11.0571 0 11.8421 0ZM 11.8421 2.14286C 11.2702 2.14286 10.673 2.16239 10.0507 2.20145C 9.42827 2.24051 8.80308 2.30748 8.17509 2.40234C 7.5471 2.49721 6.93313 2.61998 6.33317 2.77065C 5.73322 2.92132 5.1641 3.10268 4.62582 3.31473C 4.45761 3.3817 4.23333 3.48493 3.95298 3.62444C 3.67262 3.76395 3.39788 3.92299 3.12874 4.10156C 2.8596 4.28013 2.62971 4.47824 2.43907 4.69587C 2.24843 4.9135 2.15311 5.13393 2.15311 5.35714C 2.15311 5.44643 2.16993 5.53013 2.20357 5.60826C 2.23722 5.68638 2.28207 5.76451 2.33814 5.84263C 2.57364 6.19978 2.91287 6.51228 3.35582 6.78013C 3.79878 7.04799 4.29781 7.28237 4.85291 7.48326C 5.40801 7.68415 5.99955 7.85435 6.62754 7.99386C 7.25553 8.13337 7.88072 8.24498 8.5031 8.32868C 9.12549 8.41239 9.72544 8.47377 10.303 8.51283C 10.8805 8.5519 11.3935 8.57143 11.8421 8.57143C 12.2907 8.57143 12.8037 8.5519 13.3812 8.51283C 13.9588 8.47377 14.5587 8.41239 15.1811 8.32868C 15.8035 8.24498 16.4287 8.13337 17.0567 7.99386C 17.6847 7.85435 18.2762 7.68415 18.8313 7.48326C 19.3864 7.28237 19.8826 7.04799 20.32 6.78013C 20.7573 6.51228 21.0994 6.19978 21.3461 5.84263C 21.4021 5.76451 21.447 5.68638 21.4806 5.60826C 21.5143 5.53013 21.5311 5.44643 21.5311 5.35714C 21.5311 5.13393 21.4358 4.9135 21.2451 4.69587C 21.0545 4.47824 20.8246 4.28013 20.5555 4.10156C 20.2863 3.92299 20.0116 3.76395 19.7312 3.62444C 19.4509 3.48493 19.2266 3.3817 19.0584 3.31473C 18.5201 3.10268 17.951 2.92132 17.351 2.77065C 16.7511 2.61998 16.1371 2.49721 15.5091 2.40234C 14.8811 2.30748 14.2559 2.24051 13.6336 2.20145C 13.0112 2.16239 12.414 2.14286 11.8421 2.14286ZM 11.8421 27.8571C 12.414 27.8571 13.0112 27.8376 13.6336 27.7985C 14.2559 27.7595 14.8811 27.6925 15.5091 27.5977C 16.1371 27.5028 16.7511 27.3828 17.351 27.2377C 17.951 27.0926 18.5201 26.9085 19.0584 26.6853C 19.2266 26.6183 19.4509 26.5151 19.7312 26.3756C 20.0116 26.236 20.2863 26.077 20.5555 25.8984C 20.8246 25.7199 21.0545 25.5218 21.2451 25.3041C 21.4358 25.0865 21.5311 24.8661 21.5311 24.6429L 21.5311 8.53795C 20.8919 8.95089 20.1686 9.29688 19.3612 9.57589C 18.5538 9.85491 17.7155 10.0781 16.8464 10.2455C 15.9773 10.4129 15.111 10.5329 14.2475 10.6055C 13.384 10.678 12.5822 10.7143 11.8421 10.7143C 11.102 10.7143 10.2974 10.678 9.42827 10.6055C 8.55917 10.5329 7.69288 10.4129 6.8294 10.2455C 5.96591 10.0781 5.13046 9.85491 4.32304 9.57589C 3.51562 9.29688 2.79232 8.95089 2.15311 8.53795L 2.15311 24.6429C 2.15311 24.8661 2.24843 25.0865 2.43907 25.3041C 2.62971 25.5218 2.8596 25.7199 3.12874 25.8984C 3.39788 26.077 3.67262 26.236 3.95298 26.3756C 4.23333 26.5151 4.45761 26.6183 4.62582 26.6853C 5.1641 26.9085 5.73322 27.0926 6.33317 27.2377C 6.93313 27.3828 7.5471 27.5028 8.17509 27.5977C 8.80308 27.6925 9.42827 27.7595 10.0507 27.7985C 10.673 27.8376 11.2702 27.8571 11.8421 27.8571Z"/>
<path id="path9_fill" d="M 9.6596 14.2132L 2.14286 21.7299L 2.14286 27.8571L 30 27.8571L 30 30L 0 30L 0 5e-07L 2.14286 5e-07L 2.14286 18.9509L 9.6596 11.4342L 13.9286 15.7366L 25.7143 3.95089L 30 8.23661L 30 11.0156L 25.7143 6.72991L 13.9286 18.5156L 9.6596 14.2132Z"/>
<path id="path10_fill" d="M 26.25 0C 26.7676 0 27.2534 0.0976557 27.7075 0.292969C 28.1616 0.488281 28.5596 0.756836 28.9014 1.09863C 29.2432 1.44043 29.5117 1.83838 29.707 2.29248C 29.9023 2.74658 30 3.23242 30 3.75C 30 4.26758 29.9023 4.75342 29.707 5.20752C 29.5117 5.66162 29.2432 6.05957 28.9014 6.40137C 28.5596 6.74316 28.1616 7.01172 27.7075 7.20703C 27.2534 7.40234 26.7676 7.5 26.25 7.5L 24.375 7.5L 24.375 26.25C 24.375 26.7676 24.2773 27.2534 24.082 27.7075C 23.8867 28.1616 23.6182 28.5596 23.2764 28.9014C 22.9346 29.2432 22.5366 29.5117 22.0825 29.707C 21.6284 29.9023 21.1426 30 20.625 30L 3.75 30C 3.23242 30 2.74658 29.9023 2.29248 29.707C 1.83838 29.5117 1.44043 29.2432 1.09863 28.9014C 0.756836 28.5596 0.488281 28.1616 0.292969 27.7075C 0.097656 27.2534 0 26.7676 0 26.25C 0 25.7324 0.097656 25.2466 0.292969 24.7925C 0.488281 24.3384 0.756836 23.9404 1.09863 23.5986C 1.44043 23.2568 1.83838 22.9883 2.29248 22.793C 2.74658 22.5977 3.23242 22.5 3.75 22.5L 3.75 3.75C 3.75 3.23242 3.84766 2.74658 4.04297 2.29248C 4.23828 1.83838 4.50684 1.44043 4.84863 1.09863C 5.19043 0.756836 5.58838 0.488281 6.04248 0.292969C 6.49658 0.0976557 6.98242 0 7.5 0L 26.25 0ZM 17.373 28.125C 17.041 27.5391 16.875 26.9141 16.875 26.25C 16.875 25.5859 17.041 24.9609 17.373 24.375L 3.75 24.375C 3.48633 24.375 3.24219 24.4238 3.01758 24.5215C 2.79297 24.6191 2.59521 24.7534 2.42432 24.9243C 2.25342 25.0952 2.11914 25.293 2.02148 25.5176C 1.92383 25.7422 1.875 25.9863 1.875 26.25C 1.875 26.5137 1.92383 26.7578 2.02148 26.9824C 2.11914 27.207 2.25342 27.4048 2.42432 27.5757C 2.59521 27.7466 2.79297 27.8809 3.01758 27.9785C 3.24219 28.0762 3.48633 28.125 3.75 28.125L 17.373 28.125ZM 20.625 28.125C 20.8887 28.125 21.1328 28.0762 21.3574 27.9785C 21.582 27.8809 21.7798 27.7466 21.9507 27.5757C 22.1216 27.4048 22.2559 27.207 22.3535 26.9824C 22.4512 26.7578 22.5 26.5137 22.5 26.25L 22.5 3.75C 22.5 3.08594 22.666 2.46094 22.998 1.875L 7.5 1.875C 7.23633 1.875 6.99219 1.92383 6.76758 2.02148C 6.54297 2.11914 6.34521 2.25342 6.17432 2.42432C 6.00342 2.59522 5.86914 2.79297 5.77148 3.01758C 5.67383 3.24219 5.625 3.48633 5.625 3.75L 5.625 22.5L 20.625 22.5C 20.8789 22.5 21.0986 22.5928 21.2842 22.7783C 21.4697 22.9639 21.5625 23.1836 21.5625 23.4375C 21.5625 23.6914 21.4697 23.9111 21.2842 24.0967C 21.0986 24.2822 20.8789 24.375 20.625 24.375C 20.3809 24.375 20.1416 24.4214 19.9072 24.5142C 19.6729 24.6069 19.4678 24.7412 19.292 24.917C 19.1162 25.0928 18.9819 25.2979 18.8892 25.5322C 18.7964 25.7666 18.75 26.0059 18.75 26.25C 18.75 26.5137 18.7988 26.7578 18.8965 26.9824C 18.9941 27.207 19.1284 27.4048 19.2993 27.5757C 19.4702 27.7466 19.668 27.8809 19.8926 27.9785C 20.1172 28.0762 20.3613 28.125 20.625 28.125ZM 26.25 5.625C 26.5137 5.625 26.7578 5.57617 26.9824 5.47852C 27.207 5.38086 27.4048 5.24658 27.5757 5.07568C 27.7466 4.90478 27.8809 4.70703 27.9785 4.48242C 28.0762 4.25781 28.125 4.01367 28.125 3.75C 28.125 3.48633 28.0762 3.24219 27.9785 3.01758C 27.8809 2.79297 27.7466 2.59522 27.5757 2.42432C 27.4048 2.25342 27.207 2.11914 26.9824 2.02148C 26.7578 1.92383 26.5137 1.875 26.25 1.875C 25.9863 1.875 25.7422 1.92383 25.5176 2.02148C 25.293 2.11914 25.0952 2.25342 24.9243 2.42432C 24.7534 2.59522 24.6191 2.79297 24.5215 3.01758C 24.4238 3.24219 24.375 3.48633 24.375 3.75L 24.375 5.625L 26.25 5.625ZM 7.5 5.625L 20.625 5.625L 20.625 7.5L 7.5 7.5L 7.5 5.625ZM 7.5 9.375L 20.625 9.375L 20.625 11.25L 7.5 11.25L 7.5 9.375ZM 7.5 13.125L 20.625 13.125L 20.625 15L 7.5 15L 7.5 13.125ZM 7.5 16.875L 20.625 16.875L 20.625 18.75L 7.5 18.75L 7.5 16.875Z"/>
<path id="path11_fill" d="M 13.9165 11.8679C 13.6569 12.2856 13.355 12.6665 13.0107 13.0107C 12.6665 13.355 12.2856 13.6569 11.8679 13.9165L 12.7314 16.0158L 10.7336 16.8284L 9.8702 14.746C 9.41874 14.8589 8.93341 14.9153 8.41422 14.9153C 7.89503 14.9153 7.40971 14.8589 6.95824 14.746L 6.09481 16.8284L 4.09706 16.0158L 4.9605 13.9165C 4.54289 13.6569 4.16196 13.355 3.81772 13.0107C 3.47348 12.6665 3.17156 12.2856 2.91196 11.8679L 0.812641 12.7314L -6.20216e-09 10.7336L 2.08239 9.8702C 1.96953 9.41874 1.91309 8.93341 1.91309 8.41422C 1.91309 7.89503 1.96953 7.40971 2.08239 6.95824L -6.20216e-09 6.09481L 0.812641 4.09707L 2.91196 4.9605C 3.43115 4.114 4.114 3.43115 4.9605 2.91196L 4.09706 0.812641L 6.09481 3.61174e-07L 6.95824 2.08239C 7.40971 1.96953 7.89503 1.91309 8.41422 1.91309C 8.93341 1.91309 9.41874 1.96953 9.8702 2.08239L 10.7336 3.61174e-07L 12.7314 0.812641L 11.8679 2.91196C 12.7144 3.43115 13.3973 4.114 13.9165 4.9605L 16.0158 4.09707L 16.8284 6.09481L 14.746 6.95824C 14.8589 7.40971 14.9154 7.89503 14.9154 8.41422C 14.9154 8.93341 14.8589 9.41874 14.746 9.8702L 16.8284 10.7336L 16.0158 12.7314L 13.9165 11.8679ZM 8.41422 12.7483C 9.01241 12.7483 9.57393 12.6354 10.0988 12.4097C 10.6236 12.184 11.0835 11.8736 11.4786 11.4786C 11.8736 11.0835 12.184 10.6236 12.4097 10.0988C 12.6354 9.57393 12.7483 9.01242 12.7483 8.41422C 12.7483 7.81603 12.6354 7.25452 12.4097 6.72968C 12.184 6.20485 11.8736 5.74492 11.4786 5.34989C 11.0835 4.95485 10.6236 4.64447 10.0988 4.41874C 9.57393 4.193 9.01241 4.08014 8.41422 4.08014C 7.81603 4.08014 7.25451 4.193 6.72968 4.41874C 6.20485 4.64447 5.74492 4.95485 5.34989 5.34989C 4.95485 5.74492 4.64447 6.20485 4.41874 6.72968C 4.193 7.25452 4.08013 7.81603 4.08013 8.41422C 4.08013 9.01242 4.193 9.57393 4.41874 10.0988C 4.64447 10.6236 4.95485 11.0835 5.34989 11.4786C 5.74492 11.8736 6.20485 12.184 6.72968 12.4097C 7.25451 12.6354 7.81603 12.7483 8.41422 12.7483ZM 32.2517 20.333C 32.2517 20.9537 32.1727 21.5801 32.0147 22.2122L 34.3341 23.1603L 33.5214 25.1749L 31.1851 24.2099C 30.5192 25.316 29.6388 26.1964 28.544 26.851L 29.509 29.1704L 27.4944 30L 26.5463 27.6806C 25.9142 27.8386 25.2878 27.9176 24.667 27.9176C 24.0463 27.9176 23.4199 27.8386 22.7878 27.6806L 21.8397 30L 19.8251 29.1704L 20.7901 26.851C 19.684 26.1964 18.8036 25.316 18.149 24.2099L 15.8126 25.1749L 15 23.1603L 17.3194 22.2122C 17.1614 21.5801 17.0824 20.9537 17.0824 20.333C 17.0824 19.7122 17.1614 19.0858 17.3194 18.4537L 15 17.5056L 15.8126 15.491L 18.149 16.456C 18.8036 15.3612 19.684 14.4808 20.7901 13.8149L 19.8251 11.4786L 21.8397 10.6659L 22.7878 12.9853C 23.4199 12.8273 24.0463 12.7483 24.667 12.7483C 25.2878 12.7483 25.9142 12.8273 26.5463 12.9853L 27.4944 10.6659L 29.509 11.4786L 28.544 13.8149C 29.6388 14.4808 30.5192 15.3612 31.1851 16.456L 33.5214 15.491L 34.3341 17.5056L 32.0147 18.4537C 32.1727 19.0858 32.2517 19.7122 32.2517 20.333ZM 24.667 25.7506C 25.412 25.7506 26.1117 25.6095 26.7664 25.3273C 27.421 25.0451 27.9938 24.6586 28.4848 24.1676C 28.9757 23.6766 29.3651 23.101 29.6529 22.4407C 29.9407 21.7805 30.0847 21.0779 30.0847 20.333C 30.0847 19.588 29.9407 18.8883 29.6529 18.2336C 29.3651 17.579 28.9757 17.0062 28.4848 16.5152C 27.9938 16.0243 27.421 15.6349 26.7664 15.3471C 26.1117 15.0593 25.412 14.9153 24.667 14.9153C 23.9221 14.9153 23.2195 15.0593 22.5593 15.3471C 21.899 15.6349 21.3234 16.0243 20.8324 16.5152C 20.3414 17.0062 19.9549 17.579 19.6727 18.2336C 19.3905 18.8883 19.2494 19.588 19.2494 20.333C 19.2494 21.0779 19.3905 21.7805 19.6727 22.4407C 19.9549 23.101 20.3414 23.6766 20.8324 24.1676C 21.3234 24.6586 21.899 25.0451 22.5593 25.3273C 23.2195 25.6095 23.9221 25.7506 24.667 25.7506Z"/>
<path id="path12_fill" d="M 22.5 10.3125C 22.5 10.8789 22.4048 11.416 22.2144 11.9238C 22.0239 12.4316 21.7578 12.8906 21.416 13.3008C 21.0742 13.7109 20.6689 14.0576 20.2002 14.3408C 19.7314 14.624 19.2188 14.8145 18.6621 14.9121C 18.5547 15.4688 18.3618 15.9814 18.0835 16.4502C 17.8052 16.9189 17.4609 17.3242 17.0508 17.666C 16.6406 18.0078 16.1816 18.2739 15.6738 18.4644C 15.166 18.6548 14.6289 18.75 14.0625 18.75L 8.4375 18.75C 8.125 18.75 7.82715 18.7988 7.54395 18.8965C 7.26074 18.9941 7.00195 19.1309 6.76758 19.3066C 6.5332 19.4824 6.32812 19.6948 6.15234 19.9438C 5.97656 20.1929 5.84473 20.4639 5.75684 20.7568C 6.28418 20.8838 6.77002 21.0913 7.21436 21.3794C 7.65869 21.6675 8.03955 22.0117 8.35693 22.4121C 8.67432 22.8125 8.92334 23.2617 9.104 23.7598C 9.28467 24.2578 9.375 24.7754 9.375 25.3125C 9.375 25.957 9.25049 26.5649 9.00146 27.1362C 8.75244 27.7075 8.41553 28.2056 7.99072 28.6304C 7.56592 29.0552 7.07031 29.3896 6.50391 29.6338C 5.9375 29.8779 5.33203 30 4.6875 30C 4.04297 30 3.43506 29.8779 2.86377 29.6338C 2.29248 29.3896 1.79443 29.0552 1.36963 28.6304C 0.944824 28.2056 0.610352 27.7075 0.366211 27.1362C 0.12207 26.5649 0 25.957 0 25.3125C 0 24.7559 0.0927728 24.2236 0.27832 23.7158C 0.463867 23.208 0.722656 22.7515 1.05469 22.3462C 1.38672 21.9409 1.78223 21.5967 2.24121 21.3135C 2.70019 21.0303 3.20312 20.835 3.75 20.7275L 3.75 9.27246C 3.20312 9.16504 2.70019 8.96973 2.24121 8.68652C 1.78223 8.40332 1.38672 8.05908 1.05469 7.65381C 0.722656 7.24853 0.463867 6.79199 0.27832 6.28418C 0.0927728 5.77637 0 5.24414 0 4.6875C 0 4.04297 0.12207 3.4375 0.366211 2.87109C 0.610352 2.30469 0.944824 1.80908 1.36963 1.38428C 1.79443 0.959473 2.29248 0.622559 2.86377 0.373535C 3.43506 0.124512 4.04297 0 4.6875 0C 5.33203 0 5.9375 0.124512 6.50391 0.373535C 7.07031 0.622559 7.56592 0.959473 7.99072 1.38428C 8.41553 1.80908 8.75244 2.30469 9.00146 2.87109C 9.25049 3.4375 9.375 4.04297 9.375 4.6875C 9.375 5.24414 9.28223 5.77637 9.09668 6.28418C 8.91113 6.79199 8.65234 7.24853 8.32031 7.65381C 7.98828 8.05908 7.59277 8.40332 7.13379 8.68652C 6.67481 8.96973 6.17188 9.16504 5.625 9.27246L 5.625 17.8418C 6.03516 17.5293 6.47949 17.29 6.95801 17.124C 7.43652 16.958 7.92969 16.875 8.4375 16.875L 14.0625 16.875C 14.375 16.875 14.6729 16.8262 14.9561 16.7285C 15.2393 16.6309 15.498 16.4941 15.7324 16.3184C 15.9668 16.1426 16.1719 15.9302 16.3477 15.6812C 16.5234 15.4321 16.6553 15.1611 16.7432 14.8682C 16.2158 14.7412 15.73 14.5361 15.2856 14.2529C 14.8413 13.9697 14.4604 13.6255 14.1431 13.2202C 13.8257 12.8149 13.5767 12.3657 13.396 11.8726C 13.2153 11.3794 13.125 10.8594 13.125 10.3125C 13.125 9.66797 13.2471 9.0625 13.4912 8.49609C 13.7354 7.92969 14.0698 7.43408 14.4946 7.00928C 14.9194 6.58447 15.4175 6.24756 15.9888 5.99854C 16.5601 5.74951 17.168 5.625 17.8125 5.625C 18.457 5.625 19.0625 5.74951 19.6289 5.99854C 20.1953 6.24756 20.6909 6.58447 21.1157 7.00928C 21.5405 7.43408 21.8774 7.92969 22.1265 8.49609C 22.3755 9.0625 22.5 9.66797 22.5 10.3125ZM 1.875 4.6875C 1.875 5.07812 1.94824 5.44434 2.09473 5.78613C 2.24121 6.12793 2.44141 6.42578 2.69531 6.67969C 2.94922 6.93359 3.24707 7.13379 3.58887 7.28027C 3.93066 7.42676 4.29688 7.5 4.6875 7.5C 5.07812 7.5 5.44434 7.42676 5.78613 7.28027C 6.12793 7.13379 6.42578 6.93359 6.67969 6.67969C 6.93359 6.42578 7.13379 6.12793 7.28027 5.78613C 7.42676 5.44434 7.5 5.07812 7.5 4.6875C 7.5 4.29688 7.42676 3.93066 7.28027 3.58887C 7.13379 3.24707 6.93359 2.94922 6.67969 2.69531C 6.42578 2.44141 6.12793 2.24121 5.78613 2.09473C 5.44434 1.94824 5.07812 1.875 4.6875 1.875C 4.29688 1.875 3.93066 1.94824 3.58887 2.09473C 3.24707 2.24121 2.94922 2.44141 2.69531 2.69531C 2.44141 2.94922 2.24121 3.24707 2.09473 3.58887C 1.94824 3.93066 1.875 4.29688 1.875 4.6875ZM 7.5 25.3125C 7.5 24.9219 7.42676 24.5557 7.28027 24.2139C 7.13379 23.8721 6.93359 23.5742 6.67969 23.3203C 6.42578 23.0664 6.12793 22.8662 5.78613 22.7197C 5.44434 22.5732 5.07812 22.5 4.6875 22.5C 4.29688 22.5 3.93066 22.5732 3.58887 22.7197C 3.24707 22.8662 2.94922 23.0664 2.69531 23.3203C 2.44141 23.5742 2.24121 23.8721 2.09473 24.2139C 1.94824 24.5557 1.875 24.9219 1.875 25.3125C 1.875 25.7031 1.94824 26.0693 2.09473 26.4111C 2.24121 26.7529 2.44141 27.0508 2.69531 27.3047C 2.94922 27.5586 3.24707 27.7588 3.58887 27.9053C 3.93066 28.0518 4.29688 28.125 4.6875 28.125C 5.07812 28.125 5.44434 28.0518 5.78613 27.9053C 6.12793 27.7588 6.42578 27.5586 6.67969 27.3047C 6.93359 27.0508 7.13379 26.7529 7.28027 26.4111C 7.42676 26.0693 7.5 25.7031 7.5 25.3125ZM 17.8125 13.125C 18.2031 13.125 18.5693 13.0518 18.9111 12.9053C 19.2529 12.7588 19.5508 12.5586 19.8047 12.3047C 20.0586 12.0508 20.2588 11.7529 20.4053 11.4111C 20.5518 11.0693 20.625 10.7031 20.625 10.3125C 20.625 9.92188 20.5518 9.55566 20.4053 9.21387C 20.2588 8.87207 20.0586 8.57422 19.8047 8.32031C 19.5508 8.06641 19.2529 7.86621 18.9111 7.71973C 18.5693 7.57324 18.2031 7.5 17.8125 7.5C 17.4219 7.5 17.0557 7.57324 16.7139 7.71973C 16.3721 7.86621 16.0742 8.06641 15.8203 8.32031C 15.5664 8.57422 15.3662 8.87207 15.2197 9.21387C 15.0732 9.55566 15 9.92188 15 10.3125C 15 10.7031 15.0732 11.0693 15.2197 11.4111C 15.3662 11.7529 15.5664 12.0508 15.8203 12.3047C 16.0742 12.5586 16.3721 12.7588 16.7139 12.9053C 17.0557 13.0518 17.4219 13.125 17.8125 13.125Z"/>
<path id="path13_fill" d="M 14.2822 11.25L 23.9502 11.25L 5.2002 30L 0.952149 30L 6.57715 18.75L 2.31628e-08 18.75L 9.375 0L 19.9072 0L 14.2822 11.25ZM 4.40918 28.125L 19.4092 13.125L 11.25 13.125L 16.875 1.875L 10.5322 1.875L 3.03223 16.875L 9.60938 16.875L 3.98438 28.125L 4.40918 28.125Z"/>
<path id="path14_fill" d="M 10.2812 4L 18.2812 4L 18.2812 6L 10.2812 6L 10.2812 4ZM 10.2812 16L 18.2812 16L 18.2812 18L 10.2812 18L 10.2812 16ZM 10.2812 20L 18.2812 20L 18.2812 22L 10.2812 22L 10.2812 20ZM 28.5625 30L 6.17676e-09 30L 2.5 20L 6.28125 20L 6.28125 2C 6.28125 1.72917 6.33333 1.47136 6.4375 1.22656C 6.54167 0.981771 6.6849 0.76823 6.86719 0.585938C 7.04948 0.403646 7.26302 0.260417 7.50781 0.15625C 7.7526 0.0520836 8.01042 0 8.28125 0L 20.2812 0C 20.5521 0 20.8099 0.0520836 21.0547 0.15625C 21.2995 0.260417 21.513 0.403646 21.6953 0.585938C 21.8776 0.76823 22.0208 0.981771 22.125 1.22656C 22.2292 1.47136 22.2812 1.72917 22.2812 2L 22.2812 20L 26.0625 20L 28.5625 30ZM 8.28125 24L 20.2812 24L 20.2812 2L 8.28125 2L 8.28125 24ZM 26 28L 24.5 22L 22.2812 22L 22.2812 26L 6.28125 26L 6.28125 22L 4.0625 22L 2.5625 28L 26 28Z"/>
<path id="path15_fill" d="M 24.8584 25.752C 24.9951 25.9766 25.0977 26.2061 25.166 26.4404C 25.2344 26.6748 25.2686 26.9238 25.2686 27.1875C 25.2686 27.5781 25.1953 27.9443 25.0488 28.2861C 24.9023 28.6279 24.7021 28.9258 24.4482 29.1797C 24.1943 29.4336 23.8965 29.6338 23.5547 29.7803C 23.2129 29.9268 22.8467 30 22.4561 30L 2.8125 30C 2.42187 30 2.05566 29.9268 1.71387 29.7803C 1.37207 29.6338 1.07422 29.4336 0.820312 29.1797C 0.566406 28.9258 0.366211 28.6279 0.219726 28.2861C 0.073242 27.9443 1.13419e-07 27.5781 1.13419e-07 27.1875C 1.13419e-07 26.9238 0.031738 26.6748 0.095215 26.4404C 0.158691 26.2061 0.258789 25.9766 0.395508 25.752L 8.73047 11.2207C 8.82812 11.084 8.87695 10.918 8.87695 10.7227L 8.87695 1.875L 7.00195 1.875L 7.00195 0L 18.252 0L 18.252 1.875L 16.377 1.875L 16.377 10.7227C 16.377 10.9082 16.4258 11.0791 16.5234 11.2354L 24.8584 25.752ZM 10.752 10.7227C 10.752 11.2402 10.6201 11.7236 10.3564 12.1729L 5.50781 20.625L 19.7461 20.625L 14.8975 12.1729C 14.6338 11.7236 14.502 11.2402 14.502 10.7227L 14.502 1.875L 10.752 1.875L 10.752 10.7227ZM 22.4561 28.125C 22.71 28.125 22.9272 28.0322 23.1079 27.8467C 23.2886 27.6611 23.3789 27.4414 23.3789 27.1875C 23.3789 27.0898 23.3667 27.0044 23.3423 26.9312C 23.3179 26.8579 23.2812 26.7822 23.2324 26.7041L 20.8301 22.5L 4.42383 22.5L 2.00684 26.7041C 1.91894 26.8506 1.875 27.0117 1.875 27.1875C 1.875 27.4414 1.96533 27.6611 2.146 27.8467C 2.32666 28.0322 2.54883 28.125 2.8125 28.125L 22.4561 28.125Z"/>
</defs>
</svg>
